# xmcd CD database file
#
# Track frame offsets:
#	150
#	17702
#	30161
#	43125
#	55458
#	69703
#	82809
#	96839
#	114695
#	129368
#	144478
#	157606
#	169913
#
# Disc length: 2417 seconds
#
# Revision: 0
# Processed by: cddbd v1.5.2PL0 Copyright (c) Steve Scherf et al.
# Submitted via: CDex 1.51
#
DISCID=a2096f0d
DTITLE=Randall Cousins - Driven
DYEAR=2006
DGENRE=Country
TTITLE0=Randall Cousins =Venus Needs Women (U Should Apply)
TTITLE1=Randall Cousins =Run For Your Money
TTITLE2=Randall Cousins =Some Rivers Run Dry
TTITLE3=Randall Cousins =I Am What I Am
TTITLE4=Randall Cousins =Hot Rod Girl
TTITLE5=Randall Cousins =Miss Behave
TTITLE6=Randall Cousins =No One (Ever Gets Over Me )
TTITLE7=Randall Cousins =Dream That Won't Come True
TTITLE8=Randall Cousins =Slip Away
TTITLE9=Randall Cousins =Change Your Mind
TTITLE10=Randall Cousins =Way We Connect Is Madness
TTITLE11=Randall Cousins =One More Second Chance
TTITLE12=Randall Cousins =Your Light Inside
EXTD=YEAR: 2006
EXTT0=
EXTT1=
EXTT2=
EXTT3=
EXTT4=
EXTT5=
EXTT6=
EXTT7=
EXTT8=
EXTT9=
EXTT10=
EXTT11=
EXTT12=
PLAYORDER=
